<svg width="758" height="728" xmlns="http://www.w3.org/2000/svg" xmlns:xlink="http://www.w3.org/1999/xlink" overflow="hidden"><defs><clipPath id="clip0"><rect x="-1" y="14" width="758" height="728"></rect></clipPath></defs><g clip-path="url(#clip0)" transform="translate(1 -14)"><path d="M359 376 326.623 19C267.901 39.3894 225.771 95.1729 225.771 160.804 225.771 176.683 228.358 191.93 232.919 206.288 208.336 188.729 178.256 178.331 145.733 178.331 95.0166 178.331 50.1699 203.508 23 242.007L359 376Z" fill="#00AE4D" fill-rule="evenodd"></path><path d="M350.002 409.93 0 328C0.827387 390.249 40.6203 447.914 103.085 468.648 118.197 473.655 133.521 476.003 148.633 476.197 124.132 494.016 104.77 519.333 94.4736 550.24 78.4519 598.462 88.2308 649.032 116.299 687.002L350.002 409.93Z" fill="#00AE4D" fill-rule="evenodd"></path><path d="M378.324 426 194 734.385C253.494 752.544 320.449 732.229 359.163 679.051 368.517 666.177 375.427 652.317 380.202 637.983 389.719 666.729 407.925 692.913 434.225 712.11 475.22 742.071 526.331 748.166 571 733.007L378.324 426Z" fill="#00AE4D" fill-rule="evenodd"></path><path d="M395 376 725.002 235.431C687.545 185.819 621.467 162.865 558.965 183.037 543.836 187.921 530.116 195.071 517.852 203.822 527.01 175.03 527.641 143.211 517.658 112.25 502.061 63.9968 464.314 29.0243 419.286 15L395 376Z" fill="#00AE4D" fill-rule="evenodd"></path><path d="M405 406.873 641.101 677C676.682 626.02 678.026 556.044 639.45 502.896 630.125 490.05 619.053 479.209 606.911 470.263 637.151 470.052 667.617 460.781 693.986 441.674 735.072 411.872 756.619 365.162 755.986 318L405 406.873Z" fill="#00AE4D" fill-rule="evenodd"></path></g></svg>